<svg xmlns="http://www.w3.org/2000/svg" xmlns:xlink="http://www.w3.org/1999/xlink" version="1.1" x="0px" y="0px" viewBox="0 0 100 100" enable-background="new 0 0 100 100" xml:space="preserve"><path d="M9.3,46.9c0.1,1.4,0.4,2.8,1,4.1c3.3,7.2,9.9,16.2,9.9,16.2l0.4,0.5c0.3,0.4,0.8,0.5,1.3,0.3c0.5-0.3,0.6-0.9,0.4-1.3  l-8.8-14.3c-0.9-1.6-0.4-3.8,1.3-4.9c1.7-1.1,4-0.5,4.9,1.1l9.1,11.7c0.6,0.8,1.7,1.9,2.5,2.4c8.2,5.9,9.3,11.9,10,14.9  c0,0,0.1,0.7,0.1,1.7h0l0,0c0,0.8,0,1.8-0.2,2.9L40.6,92c0,0.7-0.6,1.3-1.3,1.3l-15.4-0.1c-0.7,0-1.3-0.6-1.3-1.3l-0.3-8.1L7.7,66.2  c-2.2-2.3-3.6-4.9-4.1-8l-0.1-0.9L0.9,32.6c-0.1-1.2,0.3-2.5,1.3-3.2c1.1-0.9,2.9-1.3,4.3,0.3c1,1.1,1.4,4.5,1.6,5.4  c0.5,3.2,1.1,7.9,1.2,11.1C9.2,46.3,9.2,46.6,9.3,46.9z M11.9,44.4c0,0.3,0,0.5,0,0.8c0.3-0.3,0.6-0.5,1-0.7  c0.4-0.3,0.9-0.5,1.4-0.6c0,0,0-0.1,0.1-0.1c-0.3-2.5-1.2-7.4-1.9-9.9c-0.3-1.3-1.1-2.2-2.3-2.6c0.3,0.9,0.4,1.7,0.6,2.6  C11.2,36.7,11.9,41.8,11.9,44.4z M16.9,43.5c0.7,0,1.5,0.2,2.2,0.4c-0.2-1.7-1.3-4.9-1.8-6.5c-0.3-1.2-1.1-2.1-2.3-2.6  c0.4,1.9,1.5,5.2,1.7,7l0.2,1.2C16.9,43.3,16.9,43.4,16.9,43.5z M80.4,48.5l-9.1,11.7c-0.6,0.8-1.7,1.9-2.5,2.4  c-8.2,5.9-9.3,11.9-10,14.9c0,0-0.1,0.7-0.1,1.7v0c0,0.8,0,1.8,0.2,2.9l0.5,9.8c0,0.7,0.6,1.3,1.3,1.3l15.4-0.1  c0.7,0,1.3-0.6,1.3-1.3l0.3-8.1l14.6-17.6c2.2-2.3,3.6-4.9,4.1-8l0.1-0.9l2.5-24.7c0.1-1.2-0.3-2.5-1.3-3.2  c-1.1-0.9-2.9-1.3-4.3,0.3c-1,1.1-1.4,4.5-1.6,5.4c-0.5,3.2-1.1,7.9-1.2,11.1c0,0.2,0,0.5,0,0.7c-0.1,1.4-0.4,2.8-1,4.1  c-3.3,7.2-9.9,16.2-9.9,16.2l-0.4,0.5c-0.3,0.4-0.8,0.5-1.3,0.3c-0.5-0.3-0.6-0.9-0.4-1.3l8.7-14.3c0.9-1.6,0.4-3.8-1.3-4.9  C83.6,46.4,81.3,46.9,80.4,48.5z M88,45.3c0-0.3,0-0.5,0-0.8c0.1-2.7,0.7-7.7,1.2-10.5c0.1-0.8,0.3-1.7,0.6-2.6  c-1.3,0.4-2,1.3-2.3,2.6c-0.7,2.5-1.6,7.3-1.9,9.9c0,0,0,0.1,0.1,0.1c0.5,0.2,0.9,0.4,1.4,0.6C87.4,44.8,87.7,45,88,45.3z   M83.3,41.9c0.2-1.8,1.3-5.2,1.7-7c-1.2,0.4-2,1.3-2.3,2.6c-0.4,1.5-1.5,4.8-1.8,6.5c0.7-0.3,1.4-0.4,2.2-0.4c0-0.1,0-0.2,0-0.4  L83.3,41.9z M28.6,48.7l2.9-2.9c-1.6-2.3-2.7-5-3.2-7.8h-4c-1,0-1.8-0.8-1.8-1.8v-4.9c0-1,0.8-1.8,1.8-1.8h4  c0.6-2.8,1.7-5.5,3.2-7.8l-2.9-2.9c-0.7-0.7-0.7-1.8,0-2.5l3.4-3.4c0.7-0.7,1.8-0.7,2.5,0l2.9,2.9c2.3-1.6,5-2.7,7.8-3.2v-4  c0-1,0.8-1.8,1.8-1.8h4.9c1,0,1.8,0.8,1.8,1.8v4c2.8,0.6,5.5,1.7,7.8,3.2l2.9-2.9c0.7-0.7,1.8-0.7,2.5,0l3.4,3.4  c0.7,0.7,0.7,1.8,0,2.5l-2.9,2.9c1.6,2.3,2.7,5,3.2,7.8h4c1,0,1.8,0.8,1.8,1.8v4.9c0,1-0.8,1.8-1.8,1.8h-4c-0.6,2.8-1.7,5.5-3.2,7.8  l2.9,2.9c0.7,0.7,0.7,1.8,0,2.5l-3.4,3.4c-0.7,0.7-1.8,0.7-2.5,0l-2.9-2.9c-2.3,1.6-5,2.7-7.8,3.2v4c0,1-0.8,1.8-1.8,1.8H47  c-1,0-1.8-0.8-1.8-1.8v-4c-2.8-0.6-5.5-1.7-7.8-3.2l-2.9,2.9c-0.7,0.7-1.8,0.7-2.5,0l-3.4-3.4C27.9,50.5,27.9,49.4,28.6,48.7z   M40.6,39c-0.4-0.7-1.3-0.9-2-0.5c-0.7,0.4-0.9,1.3-0.5,2c0,0,0,0,0,0c0.4,0.7,1.3,0.9,2,0.5C40.8,40.6,41.1,39.7,40.6,39z   M44.4,42.7c-0.7-0.4-1.6-0.1-2,0.6c-0.3,0.5-0.2,1,0,1.5c0.1,0.2,0.3,0.4,0.5,0.5c0.7,0.4,1.6,0.1,2-0.6  C45.4,44,45.1,43.1,44.4,42.7z M51.1,45.5c0-0.8-0.7-1.5-1.5-1.4l0,0c-0.8,0-1.5,0.7-1.5,1.5c0,0.3,0.1,0.5,0.2,0.7  c0.3,0.4,0.7,0.7,1.3,0.7C50.4,47,51.1,46.3,51.1,45.5z M56.7,43.1c-0.4-0.7-1.3-0.9-2-0.5c-0.7,0.4-0.9,1.3-0.5,2c0,0,0,0,0,0  c0.4,0.7,1.3,0.9,2,0.5C56.9,44.7,57.1,43.8,56.7,43.1z M60.4,38.3c-0.7-0.4-1.6-0.1-2,0.6c-0.3,0.5-0.2,1,0,1.5  c0.1,0.2,0.3,0.4,0.5,0.5c0.7,0.4,1.6,0.1,2-0.6C61.4,39.6,61.1,38.7,60.4,38.3z M61.2,32.2c-0.8,0-1.5,0.7-1.5,1.5  c0,0.3,0.1,0.5,0.2,0.7c0.3,0.4,0.7,0.7,1.3,0.7c0.8,0,1.5-0.7,1.4-1.5C62.7,32.8,62,32.2,61.2,32.2z M58.9,26.5l-8.1,4  c-1-0.4-2.2-0.4-3.2,0.2c-1.7,1-2.3,3.2-1.3,4.9c1,1.7,3.2,2.3,4.9,1.3c1-0.6,1.6-1.6,1.7-2.7l7.4-5.2c0.6-0.4,0.8-1.3,0.4-1.9  C60.4,26.4,59.6,26.2,58.9,26.5z M36,33.8c0,0.9,0.8,1.7,1.7,1.7c0.9,0,1.7-0.8,1.7-1.7c0-5.6,4.5-10.1,10.1-10.1  c2.1,0,4,0.6,5.6,1.7l2.6-1.3c0.3-0.1,0.5-0.2,0.8-0.3c-2.4-2.2-5.7-3.5-9-3.5C42.1,20.3,36,26.3,36,33.8z M49.9,32.2  C49,32,48.2,32.5,48,33.4c-0.2,0.8,0.3,1.7,1.1,1.9c0.8,0.2,1.7-0.3,1.9-1.1C51.2,33.3,50.7,32.4,49.9,32.2z"/></svg>